<?xml version="1.0" encoding="UTF-8"?><svg id="b" xmlns="http://www.w3.org/2000/svg" xmlns:xlink="http://www.w3.org/1999/xlink" viewBox="0 0 1050.14 409.59"><defs><style>.h{fill:none;}.i{fill:url(#f);}.i,.j,.k{fill-rule:evenodd;}.l,.k{fill:#fefefe;}.j{fill:#848688;}</style><linearGradient id="f" x1="19995.46" y1="-16167.33" x2="19995.46" y2="-10450.24" gradientTransform="translate(-69.14 -270.94) scale(.03 -.03)" gradientUnits="userSpaceOnUse"><stop offset="0" stop-color="#725737"/><stop offset=".18" stop-color="#a5773b"/><stop offset=".32" stop-color="#dfb966"/><stop offset=".47" stop-color="#e5a239"/><stop offset=".6" stop-color="#a5783b"/><stop offset=".73" stop-color="#836138"/><stop offset=".82" stop-color="#a5773b"/><stop offset=".88" stop-color="#e5a239"/><stop offset=".94" stop-color="#bd7f39"/><stop offset=".98" stop-color="#9d6438"/><stop offset="1" stop-color="#9d6438"/></linearGradient><clipPath id="g"><rect class="h" x="1.14" y="2.01" width="982.26" height="202.49"/></clipPath></defs><g id="c"><g id="d"><g id="e"><path class="j" d="M621.16,36.47h3.86v8.7c-4.52,.38-12.01-1.11-15.86,1.85-3.82,6.48-1.96,121.41-.95,128.92-4.65-.46-4.71-6.23-4.76-9.7,0,0,0-113.83,0-113.83-1.19-12.67,8.97-9.91,17.71-10.2v-5.73h0Zm0,142.92h3.86v8.91h-58.66v-2.96h54.8v-5.94Zm-40.53-102.29l-26.84,111.19h-8.11l-.73-2.96h4.98l30.7-127.19v18.96h0Zm-66.07-2.71c1.37,14.92-3.33,88.44,3.04,100.97-7.72-2.82-6.51-16.09-6.9-22.64,0,0,0-94.05,0-94.05l3.86,15.71Zm14.48,104.99h3.86v8.91h-47.06v-2.96h43.2v-5.94Zm-29.31-133.91c-3.5-.57-10.48-.23-13.89-.31v-2.96c3.93,.56,12.38-1.78,13.89,3.28Zm28.05-9.01h3.15l22.05,91.66-1.56,6.59s-23.63-98.26-23.63-98.26Zm440.79,4.27c45.95,32.84,40.87,147.28-25.7,150.93-11.65,0-21.38-3.92-29.45-10.78,79.84,41.7,105.66-99.57,55.16-140.16h0Zm-83.22-4.27h3.86v8.7c-4.52,.38-12.01-1.11-15.86,1.85-3.82,6.48-1.96,121.41-.95,128.92-4.65-.45-4.71-6.23-4.76-9.7,0,0,0-113.83,0-113.83-1.19-12.67,8.97-9.91,17.71-10.2v-5.73h0Zm0,142.92h3.86v8.91h-58.66v-2.96h54.8v-5.94Zm-40.53-102.29l-26.84,111.19h-8.11l-.73-2.96h4.98l30.7-127.19v18.96h0Zm-66.07-2.71c1.37,14.92-3.33,88.44,3.04,100.97-7.72-2.82-6.51-16.09-6.9-22.64,0,0,0-94.05,0-94.05l3.86,15.71Zm14.48,104.99h3.86v8.91h-47.06v-2.96h43.2v-5.94Zm-29.31-133.91c-3.5-.57-10.48-.23-13.89-.31v-2.96c3.93,.56,12.38-1.78,13.89,3.28Zm28.05-9.01h3.15l22.05,91.66-1.56,6.59s-23.63-98.26-23.63-98.26Zm-84.41,40.68h3.86v64.98h-8.85c-.02-.66-.06-2.33-.09-2.96h5.08v-62.02Zm-16.04,38.94c-5.78-3.34-12.91-3.83-19.52-3.26,.44,8.51-1.09,55.27,1.03,62.69-5.95-.17-4.45-10.14-4.89-13.93,0,0,0-51.72,0-51.72,8.19-.69,17.27,.18,23.38,6.22h0Zm44.66,17.56h4.01l-2.85,54.65h-107.56v-2.96h103.7l2.69-51.69h0Zm-92.57-87.88c-3.24-.71-10.57-.28-13.83-.39v-2.96c4.11,.43,11.84-1.53,13.83,3.36h0Zm90.51-9.3h3.85l.23,51.07h-8.44c-.1-.72-.32-2.26-.42-2.96h5l-.22-48.1h0Zm-21.04,14.45c-11.22-6.24-26.73-7.17-38.81-3.83-4.79,4.58-1.22,47.51-2.27,54.05-1.22,.04-2.66,.03-3.86,.03,1.06-6.75-2.56-52.43,2.27-57.05,2.53-1.63,11.09-1.71,14.04-1.71,9.68,0,21.28,1.53,28.63,8.51Zm-304.02-5.33c-19.66,3.07-23.35,33.25-26.35,49.33h-8.47l.13-2.96h4.49c3.14-16.31,6.47-45.96,26.35-49.33,1.97-.11,3.62,.82,3.86,2.97h0Zm61.17-9.12h3.73l2.53,58.45h-8.59c-.1-.72-.32-2.26-.43-2.96h5.15l-2.4-55.48h0Zm-22.45,10.77c-10-5-10.85,1.32-10.58,9.82,0,0,0,142.65,0,142.65,0,1.66,.11,4.68,.89,6.77-10.52,5.04-2.29-149.01-4.76-152.38,0-2.12,.07-8.2,1.14-10.06,3.81-3.65,10.21,.16,13.31,3.21h0Zm5.58,162.69h3.86v8.91h-63.71v-2.96h59.85v-5.94h0Zm-117.05-66.95h-38.29c-1.44,8.21-8.94,24.09-5.38,32.23-11.44-4.26,.61-26.99,1.52-35.19h41.34l.81,2.96h0Zm-33.66,36.33c1.18,.09,2.7,.11,3.86,.14v8.85h-45.76v-2.96h41.9v-6.03h0Zm27.71-142.84h3.03c2.95,7.61,36.34,136.39,40.79,138.05-12.07-4.51-38-126.15-43.82-138.05Zm53.48,142.69c1.16,.19,2.69,.3,3.86,.41v8.73h-55.07v-2.96h51.21v-6.18h0ZM224.39,77.16h3.86v64.98h-8.85c-.02-.66-.06-2.33-.09-2.96h5.08v-62.02Zm-16.04,38.94c-5.77-3.34-12.92-3.82-19.52-3.27,.44,8.51-1.09,55.28,1.03,62.7-5.95-.17-4.45-10.14-4.89-13.93,0,0,0-51.74,0-51.74,8.18-.67,17.28,.19,23.38,6.24Zm44.66,17.56h4.01l-2.85,54.65h-107.56v-2.96h103.7l2.69-51.69ZM160.44,45.78c-3.24-.71-10.57-.28-13.82-.39v-2.96c4.11,.43,11.84-1.53,13.82,3.36h0Zm90.51-9.3h3.85l.23,51.07h-8.44c-.1-.72-.32-2.26-.42-2.96h5l-.22-48.1h0Zm-21.04,14.45c-11.22-6.24-26.73-7.17-38.81-3.83-4.79,4.58-1.22,47.51-2.27,54.05-1.22,.04-2.65,.03-3.86,.03,1.06-6.75-2.56-52.43,2.26-57.05,2.53-1.63,11.09-1.71,14.04-1.71,9.68,0,21.28,1.54,28.63,8.51h0Zm-109.99,52.08c28.05,17.45,24.04,60.73-3.93,76.15-25.92,14.73-77.97,6.47-106.73,8.54v-2.96c28.53-2,77.18,5.99,102.87-8.54,26.03-14.46,32.21-54.26,7.79-73.19h0ZM25.99,19.82c-4.22-1.14-12.47-.48-16.72-.65v-2.96c4.94,.49,13.84-1.71,16.72,3.61h0Zm94.03-.9c30.01,21.2,15.05,65.14-17.74,73.89-2.1-.82-4.25-1.55-6.41-2.19,32.14-7.22,50.09-47.5,24.15-71.69h0Zm833.81,25.66c-38.29-15.5-39.6,43.21-39.49,67.64,.61,20.39-.24,48.76,14.17,64.83-19.05-14-17.07-46.45-18.04-67.79-1.1-25.01,4.3-90.76,43.35-64.68h0Zm-636.4,28.9l-15.28,55.11h-4.68l17.65-63.65,2.31,8.54h0ZM58.32,99.1c.66,9.87-1.61,66.95,1.48,75.33-6.19-.92-4.99-11.48-5.35-15.87,0,0,0-62.42,0-62.42,13.29-.33,30.91-.51,41.43,9.05-11.13-6.52-25.5-6.41-37.57-6.09h0ZM95.74,23.19c-10.55-4.77-24.61-5.72-35.11-1.9-4.9,4.74-1.25,58.46-2.32,65.4-1.29-.02-2.57-.06-3.86-.11,1.08-7.15-2.61-63.49,2.31-68.25,10.43-3.97,30.45-3.24,38.97,4.87Z"/><path class="i" d="M548.91,131.13l23.99-101.22h45.76v8.7c-8.75,.34-18.86-2.56-17.71,10.2,1.37,4.81-2.79,121.22,1.84,122.18,3.84,2.97,11.37,1.49,15.86,1.85v8.91h-58.66v-8.91c4.6-.37,12.36,1.13,16.28-1.85,1.66-1.7,1.84-6.15,1.84-8.35V54.56l-30.7,127.19h-8.11l-31.12-126.64c1.39,14.81-3.35,101.66,2.99,113.65,3.32,4.84,10.23,4.02,15.35,4.09v8.91h-47.06v-8.91c5.29,.07,11.72,.25,14.95-4.74,7.06-11.06,1.9-106.34,3.39-120.52,.27-7.09-1.56-9.33-8.9-8.97,0,0-9.44,0-9.44,0v-8.7h45.09s24.35,101.22,24.35,101.22ZM936.5,26.33c74.66,2.33,74.46,156.27,0,158.78-74.33-2.24-74.39-156.56,0-158.78h0Zm-123.4,104.8l23.99-101.22h45.76v8.7c-8.75,.34-18.86-2.56-17.71,10.2,1.37,4.81-2.79,121.22,1.84,122.18,3.84,2.97,11.37,1.49,15.86,1.85v8.91h-58.66v-8.91c4.6-.37,12.36,1.13,16.28-1.85,1.66-1.7,1.84-6.15,1.84-8.35V54.56l-30.7,127.19h-8.11l-31.12-126.64c1.38,14.81-3.35,101.66,2.99,113.65,3.32,4.84,10.23,4.02,15.35,4.09v8.91h-47.06v-8.91c5.29,.07,11.72,.25,14.95-4.74,7.06-11.06,1.9-106.34,3.39-120.52,.27-7.09-1.56-9.33-8.9-8.97,0,0-9.44,0-9.44,0v-8.7h45.09l24.35,101.22h0Zm-147.46-33.55c19.84,.97,30.2-6.46,30.67-26.98h8.75v64.98h-8.85c.88-19.59-10.6-31.91-30.57-29.3,.88,9.53-2.11,56.45,1.87,64.42,1.7,1.81,9.77,1.92,12.05,1.92,30.16,1.57,42.61-18.02,45.51-45.53h8.77l-2.85,54.65h-107.56v-9.12c8.62-.51,19.84,3.02,18.55-9.99-1.18-4.86,2.49-120.26-1.75-122.02-3.74-3.15-12.33-1.32-16.8-1.8v-8.91h108.18l.23,51.07h-8.44c-3.58-35.16-21.08-47.41-55.49-40.45-4.82,4.37-1.2,50.58-2.27,57.05h0ZM407.17,50.49c1.94-20.18-14.41-10.22-19.92,.55-6.25,10.94-9.15,24.97-10.9,37.31h-8.47l2.53-58.45h97.2l2.53,58.45h-8.59c-1.69-12.34-4.54-26.38-10.79-37.31-5.47-10.7-21.86-20.79-19.92-.55,0,0,0,142.65,0,142.65,0,2.18,.19,6.7,1.84,8.38,4.2,3.22,13.27,1.36,18.18,1.85v8.91h-63.71v-8.91c4.96-.46,13.93,1.28,18.18-1.85,1.66-1.7,1.84-6.19,1.84-8.38V50.49h0Zm-74.17,85.93h-41.34c-2.34,14.32-17.4,37.99,8.49,36.47v8.85h-45.76v-8.91c14.04,1.81,20.76-12.89,23.65-24.27,0,0,32.88-118.66,32.88-118.66h16.12c3.76,9.34,35.33,135.45,41.6,138.96,3.3,3.14,8.37,3.82,12.71,4.14v8.73h-55.07v-8.85c12.53,.36,16.48-3.87,12.3-16.05,0,0-5.56-20.43-5.56-20.43h0Zm-150.53-38.84c19.84,.97,30.2-6.46,30.67-26.98h8.75v64.98h-8.85c.88-19.61-10.6-31.89-30.57-29.31,.88,9.53-2.11,56.47,1.87,64.44,1.7,1.81,9.77,1.92,12.05,1.92,30.16,1.57,42.61-18.02,45.51-45.53h8.77l-2.85,54.65h-107.56v-9.12c8.62-.51,19.84,3.02,18.55-9.99-1.18-4.89,2.49-120.21-1.75-122.02-3.74-3.15-12.33-1.32-16.8-1.8v-8.91h108.18l.23,51.07h-8.44c-3.58-35.16-21.08-47.41-55.49-40.45-4.82,4.37-1.2,50.58-2.27,57.05h0Zm-89.1-10.57c43.03,10.24,54.7,61.37,16.27,85.59-25.92,14.73-77.97,6.47-106.73,8.54v-9.53c10.78-.36,23.26,3.02,21.87-12.64-1.48-5.75,3.09-142.51-2.16-144.12-4.44-3.84-14.37-1.69-19.72-2.24V2.83c28.19,2.51,88.31-7.58,112.32,10.63,29.06,23.1,11.46,66.17-21.86,73.54h0Zm872.09,18.64c-1.31-22.45,1.97-68.06-28.74-70.42-30.73,2.34-27.44,47.98-28.75,70.41,1.31,22.48-1.98,68.15,28.75,70.56,30.63-2.5,27.44-48.1,28.75-70.56Zm-670.51,19.33h34.91l-17.26-63.65-17.65,63.65ZM51.95,92.54c1.06,10.61-2.54,67.96,2.25,76.64,1.99,2.21,7.59,2.43,10.3,2.43,9.72,0,22.59-1.34,29.68-8.85,11.67-14.44,12.07-47.89-1.14-61.49-10.57-9.2-27.92-9.08-41.09-8.73h0Zm0-9.55c28.32,1.5,49.47-3.36,47.89-36.65,.52-23.45-7-34.53-31.61-33.72-2.9,0-11.64,.12-13.96,2.12-4.9,4.4-1.25,61.5-2.32,68.25h0Z"/><path class="k" d="M621.99,335.21c2.51-.21,5.36,1.12,5.71,3.79,5.27,.87,7.07,5.6,6.73,10.5,6.15,.75,10.96-4.91,14.56-8.66,8.08-1.61-7.76,17.09-17.05,16.77-3.33,5.4-8.73,11.71-15.88,10.86-5.53-1.05-11.11-6.15-10.17-12.36,1.1-8.51,6.66-19.75,16.1-20.9h0Zm-5.85,27.1c2.23,1.94,5.8-2.43,7.61-4.6-2.5-1.87-3.89-4.91-4.39-8.25-2.16,3.66-5.4,9.47-3.22,12.85h0Z"/><path class="k" d="M608.38,347.68c1.95-2.08,3.41-2.78,4.39-2.1,1.66,4.71-7.39,11.69-10.46,15.56-6.3,7.64-13.36,9.44-19.17,.43-3.44-5.22,4.61-30.48,12.88-22.28,6.18,5.09-5.11,14.5-4.02,20.42,6-1.4,11.66-7.57,16.39-12.03h0Z"/><path class="k" d="M602.82,332.24c-10.6-.08-6.48-12.03-.44-15.65,12.3,.92,8.01,11.23,.44,15.65h0Z"/><path class="k" d="M558.19,348.59c4.53,2.45,7.67-5.43,12.14-3.23,10.48,3.54-4.53,14.43-1.61,18.63,7.34-2.31,13.06-16.02,19.83-17.62,2.76,2.74-13.47,23.06-17.49,24.4-12.37,1.14-15.78-7.33-9.8-17.72-11.91,4.1-16.56-9.53-5.49-14.15,5.81-1.13,6.03,6.43,2.41,9.69Z"/><path class="k" d="M552.34,351.44c1.36-1.5,2.46-1.93,3.29-1.29,1.59,3.48-6.4,10.49-8.27,14.43-5.08,8.28-11.02,11.62-19.32,5.13-6.33,8.31-18.83,6.74-22.1-3.4-.67-7.29,6.35-15.43,11.2-20.46,4.45-5.34,11.88-3.2,14.56,2.09,3.11-3.69,7.48-1.41,10.24,1.03,2.18,4.52-3.92,10.18-5.27,14.45-2.88,8.1,14.05-10.3,15.66-11.98Zm-36.73,18.2c6.62,.25,12.74-12.77,13.9-18.31-3.1-4.69-15.86,15.67-13.9,18.31h0Z"/><path class="k" d="M487.95,356.14c27.99-5.57,10.5,28.51-3.51,26.29-4.64-1.29-10.31-6.76-7.54-11.74,.59-3.19,14.86-14.32,10.17-5.27-1.33,2.27-5.44,5.72-5.12,8.46,2.52,1.44,15.3-14.32,8.64-13.65-20.65,5.82-13-19.73-2.49-17.85,8.29,4.49,4.51,8.44-.15,13.76h0Z"/><path class="k" d="M457.37,347.22c2.5-.21,5.36,1.12,5.71,3.79,5.27,.87,7.07,5.6,6.73,10.5,7.37,.68,32.97-19.12,9.29,2.72-2.98,2.59-6.9,4.38-11.78,5.39-3.33,5.4-8.73,11.71-15.88,10.86-5.53-1.05-11.11-6.15-10.17-12.36,1.09-8.51,6.66-19.75,16.1-20.9h0Zm-5.85,27.1c2.23,1.94,5.8-2.43,7.61-4.6-2.5-1.87-3.89-4.91-4.39-8.25-2.16,3.66-5.4,9.46-3.22,12.85h0Z"/><path class="k" d="M399.42,383.95c18.9,1.05,40.11,2.42,58.97,1.44,3.18,.55,8.65-2.71,8.63,.18-11.61,21.4-41.36,7.32-59.78,4.61-15.94-6.16-28.1,7.24-42.51,.03-3.61,4.97-8.57,11.49-9.36,17.82-.43,3.01-3.73,1.1-5.12-.68-8.9-14.49,9.89-29.27,18.44-40.24,9.89-8.38,22.18-30.33,36.14-24.79,1.86,2.4-5.73,6.51-8.12,10.05-9.87,10.35-21.07,23.35-29.63,34.74,27.55-6.89,59.75-30.15,68.7-58.37,3.94-12.99-3.35-28.87-18.73-26.45-25.81,3.68-50.97,21.69-69.43,39.35-3.21,2.15-7.19,11.55-8.56,7.74-11.98-24.27,50.28-55.07,70.02-53.86,17.35-1.56,34.18,12.29,36.29,29.21,2.66,27-23.48,49.7-45.95,59.22h0Z"/><path class="l" d="M44.99,80.48c31.46,1.74,53.39-3.36,51.95-38.57,0-13.54-2.35-22.92-7.08-28.05-4.11-7.35-33.9-10.51-41.84-5.09-6.24,4.71-1.73,64.09-3.02,71.71h0Zm431.59,94.81v-4.85c6.2,.31,12.13-1.45,14.62-5.66,7.59-10.41,2.19-107.49,3.73-121.63,1.16-13.04-8.65-10.88-18.34-11v-4.64h41.46l25.96,107.93,25.58-107.93h42.12v4.64c-10.19-.22-18.7-.52-17.71,12.23,1.16,5.16-2.8,122.51,2.42,123.6,1.9,2.71,10.88,2.55,15.28,2.46v4.85h-54.6v-4.85c4.45,.06,13.73,.32,15.7-2.46,4.89,1.84,1.48-131.51,2.42-134.91l-34.32,142.22h-4.92l-34.75-141.38c1.49,14.56-3.66,120.94,3.34,131.54,2.3,4.08,9.14,5.37,15,4.99v4.85h-43Zm485.98-74.06c-1.35-32.82-.52-69.92-30.77-72.45-30.25,2.49-29.43,39.65-30.78,72.44,1.35,32.8,.52,70.04,30.78,72.59,30.13-2.56,29.46-39.85,30.78-72.59Zm-30.99-77.29c71.86,1.96,71.64,152.59,0,154.73-71.52-1.89-71.57-152.86,0-154.73h0Zm-190.81,151.35v-4.85c6.2,.31,12.13-1.45,14.62-5.66,7.59-10.41,2.19-107.49,3.73-121.63,1.16-13.04-8.65-10.88-18.34-11v-4.64h41.46l25.96,107.93,25.58-107.93h42.12v4.64c-10.19-.22-18.7-.52-17.71,12.23,1.16,5.16-2.8,122.51,2.42,123.6,1.9,2.71,10.88,2.55,15.28,2.46v4.85h-54.6v-4.85c4.44,.06,13.72,.32,15.7-2.46,4.89,1.84,1.48-131.51,2.42-134.91l-34.32,142.22h-4.92l-34.75-141.38c1.49,14.56-3.66,120.94,3.33,131.54,2.31,4.08,9.14,5.37,15,4.99v4.85s-43,0-43,0Zm-120.24,0v-5.06c4.49,0,14.25,.38,16.2-2.42,5-.13,1.27-119.07,2.35-123.42,.85-13.54-8.3-12.1-18.55-12.02v-4.85h104.13l.21,47.01h-4.64c-4.66-29.63-13.24-41.8-43.21-42.16-7.97,0-13.03,.67-15.14,2.04-6.52,4.2-1.87,53.56-3.2,60.78,21.37,.69,33.18-4.62,34.57-26.98h4.85v60.92h-4.85c.1-21.79-13.76-32.02-34.57-29.09,1.12,9.35-2.61,60.93,2.42,67.63,1.62,1.72,6.11,2.56,13.53,2.56,32.04-.41,41.97-13.68,47.25-45.53h4.88l-2.63,50.59h-103.61ZM404.27,46.07c2.23-20.94-16.22-14.9-23.71-.46-4.98,8.68-8.61,20.76-10.89,36.29h-4.6l2.35-54.39h93.31l2.35,54.39h-4.71c-2.21-15.53-5.81-27.61-10.79-36.29-7.5-14.44-25.94-20.48-23.71,.46,1.41,4-3.13,153.83,2.42,152.45,2.29,3.11,12.99,2.4,17.61,2.46v4.85h-59.66v-4.85c4.65-.05,15.33,.61,17.6-2.46,1.62-1.65,2.42-4.92,2.42-9.8V46.07Zm-116.91,76.52h40.23l-19.89-73.36-20.34,73.36h0Zm-35.87,52.7v-4.85c14.37-.31,19.21-11.43,23.57-25.75,0,0,32.46-117.17,32.46-117.17h13.03l34.39,122.23c4.47,14.23,5.9,19.06,19.43,20.69v4.85h-51.01v-4.85c13.33,.45,16.2-7.54,12.22-18.55,0,0-5.97-21.92-5.97-21.92h-44.44c-2.56,13.4-17.61,41.79,8.01,40.47v4.85h-41.7Zm-114.13,0v-5.06c4.49,0,14.25,.38,16.2-2.42,5-.13,1.27-119.07,2.35-123.42,.85-13.54-8.31-12.1-18.55-12.02v-4.85h104.13l.21,47.01h-4.64c-4.67-29.63-13.25-41.79-43.21-42.16-7.97,0-13.03,.68-15.14,2.04-6.52,4.21-1.87,53.56-3.2,60.78,21.37,.69,33.18-4.61,34.57-26.98h4.85v60.92h-4.85c.11-21.78-13.77-32.04-34.57-29.09,1.12,9.35-2.62,60.93,2.42,67.63,1.62,1.72,6.11,2.56,13.53,2.56,32.04-.41,41.97-13.68,47.25-45.53h4.88l-2.64,50.59h-103.61ZM44.99,86.19c1.29,10.46-3.02,72.35,2.77,79.92,1.87,2.07,5.8,3.11,11.81,3.11,14.83,0,25.18-3.16,31.15-9.49,11.94-10.76,12.34-54.16-1.24-64.38-6.82-7.75-29-10.56-44.49-9.15ZM0,174.69v-5.47c5.34,0,16.51,.48,18.97-2.98,6.22-.97,1.53-140.15,2.9-145.91C22.73,4.19,12.25,6.14,0,6.16V.44c25.1,1.94,90.06-6.47,109.08,10.23,30.17,25.24,7.57,68.16-29.62,71.76,46.88,6.93,64.73,56.95,24.19,84.02-23.14,13.87-76.51,6.44-103.65,8.24H0Z"/><path class="l" d="M256.88,258.44c2.85,.11,7.21,0,8.74-1.9,4.84-5.68,.47-17.69-8.18-13.9-1.19,1.31-.3,13.9-.56,15.79Zm0,13.69c-.32,3.26,2.17,2.93,4.61,2.91v1.15h-13.69v-1.15c2.44,.03,4.68,.22,4.41-2.91,0,0,0-27.08,0-27.08,.27-3.09-1.97-3.01-4.41-2.96v-1.05h12.74c18.6-.25,15.57,21.43-3.66,18.55,0,0,0,12.54,0,12.54Zm43.99-6.31c2.28,13.27-17.21,15.18-19.8,3.85-.63-2.96-.18-21.1-.31-24.61,.27-3.13-1.97-2.97-4.41-2.92v-1.1h13.44v1.1c-2.44-.03-4.69-.22-4.41,2.92,0,0,0,21.76,0,21.76-1.21,12.42,15.93,11.32,13.99-1.1,0,0,0-17.55,0-17.55-.13-4.18-.34-5.68-4.31-6.03v-1.1h10.13v1.1c-4.07,.46-4.16,1.79-4.31,6.08,0,0,0,17.6,0,17.6h0Zm18.03-8.63c2.95,.26,7.37-.24,8.61-1.65,3.31-3.96,2.97-14.64-4.91-13.35-2.94,.12-3.62,.01-3.69,2.82,0,0,0,12.18,0,12.18h0Zm0,1.15c.26,2.11-.61,14.6,.56,16.12,5.83,2.16,11.06-1.04,10.47-7.8,.28-7.28-4.43-8.75-11.03-8.32Zm-9.08,17.85v-1.1c2.45,.04,4.68,.19,4.41-2.96,0,0,0-27.08,0-27.08,.3-3.12-2.07-2.92-4.41-2.86v-1.15c5.06,.39,18.17-1.31,22,2.06,6.07,4.7,1.33,14.09-5.98,14.47,11.34,.94,12.58,16.32,1.39,18.22-3.1,.7-13.9,.28-17.42,.39Zm52.27-30.74c.57-4.91-3.91-3.57-5.64-.11-1.19,2.06-2.05,4.94-2.59,8.63h-1.1l.56-12.94h22.2l.56,12.94h-1.12c-.95-5.13-1.94-10.99-6.66-11.73-1.75,.16-1.41,1.19-1.55,3.21,0,0,0,26.67,0,26.67-.33,3.3,2.32,2.93,4.76,2.92v1.15h-14.19v-1.15c2.45,0,5.09,.39,4.76-2.92,0,0,0-26.67,0-26.67h0Zm28.52,11.63c2.8,.1,7.35,.03,8.77-1.85,4.62-5.98,.41-16.01-8.24-12.68-1.13,.99-.27,12.99-.53,14.52h0Zm0,15.03c-.29,3.18,1.97,2.96,4.41,2.92v1.15h-13.49v-1.15c2.45,.03,4.68,.22,4.41-2.92,0,0,0-27.07,0-27.07,.27-3.09-1.97-3.01-4.41-2.96v-1.05c3.55,.14,15.35-.36,18.42,.43,9.97,2.16,7.42,15.73-2.32,16.31,5.09,1.99,6.33,5.58,6.54,11.14,.49,8.64,4.97,4.76,3.99-.66h1.25c1.26,6.99-5.03,12.05-9.36,5.28-2.99-5.9,2.57-17.02-9.44-15.24v13.83Zm32.87,0c-.27,3.12,1.98,2.96,4.41,2.91v1.15h-13.49v-1.15c2.43,.02,4.7,.26,4.41-2.91,0,0,0-27.08,0-27.08,.29-3.15-1.99-2.95-4.41-2.91v-1.1h13.49v1.1c-2.44-.05-4.68-.21-4.41,2.91,0,0,0,27.08,0,27.08h0Zm18.79-14.94c2.95,.26,7.37-.23,8.61-1.65,3.31-3.96,2.97-14.64-4.91-13.35-2.94,.12-3.62,.01-3.69,2.82,0,0,0,12.18,0,12.18h0Zm0,1.15c.26,2.12-.61,14.59,.56,16.12,5.83,2.16,11.06-1.04,10.47-7.8,.28-7.28-4.43-8.75-11.03-8.32h0Zm-9.08,17.85v-1.1c2.45,.04,4.68,.19,4.41-2.96,0,0,0-27.08,0-27.08,.3-3.12-2.07-2.92-4.41-2.86v-1.15c5.06,.39,18.17-1.31,22,2.06,6.07,4.7,1.33,14.09-5.98,14.47,11.34,.94,12.58,16.32,1.39,18.22-3.1,.7-13.9,.28-17.42,.39h0Zm55.69-10.37c2.28,13.27-17.21,15.18-19.8,3.85-.63-2.96-.18-21.1-.31-24.61,.27-3.13-1.97-2.97-4.41-2.92v-1.1h13.44v1.1c-2.44-.03-4.69-.22-4.41,2.92,0,0,0,21.76,0,21.76-1.21,12.42,15.93,11.32,13.99-1.1,0,0,0-17.55,0-17.55-.13-4.18-.34-5.68-4.31-6.03v-1.1h10.13v1.1c-4.07,.46-4.16,1.79-4.31,6.08,0,0,0,17.6,0,17.6Zm18.63-20.37c.57-4.91-3.91-3.57-5.64-.11-1.19,2.06-2.05,4.94-2.59,8.63h-1.1l.56-12.94h22.2l.56,12.94h-1.12c-.95-5.13-1.94-10.99-6.66-11.73-1.75,.16-1.41,1.19-1.55,3.21,0,0,0,26.67,0,26.67-.33,3.3,2.32,2.93,4.76,2.92v1.15h-14.19v-1.15c2.45,0,5.09,.39,4.76-2.92,0,0,0-26.67,0-26.67h0Zm40.16,13.12c1.36-23.07-16.01-23.07-14.64,0-1.36,23.11,15.99,23.09,14.64,0Zm-7.37-18.39c17.14,.64,17.09,36.12,0,36.81-17.06-.63-17.07-36.18,0-36.81Zm38.43,17c2.95,.26,7.37-.23,8.61-1.65,3.31-3.96,2.97-14.64-4.91-13.35-2.94,.12-3.62,.01-3.69,2.82,0,0,0,12.18,0,12.18Zm0,1.15c.26,2.12-.61,14.59,.56,16.12,5.83,2.16,11.06-1.04,10.47-7.8,.28-7.28-4.43-8.75-11.03-8.32h0Zm-9.08,17.85v-1.1c2.45,.04,4.68,.19,4.41-2.96,0,0,0-27.08,0-27.08,.3-3.12-2.07-2.92-4.41-2.86v-1.15c5.06,.39,18.17-1.31,22,2.06,6.07,4.7,1.33,14.09-5.98,14.47,11.34,.94,12.58,16.32,1.39,18.22-3.1,.7-13.9,.28-17.42,.39h0Zm31.67,0v-1.2c2.42,.02,4.69,.26,4.41-2.86,0,0,0-27.08,0-27.08,.3-3.13-2.07-2.91-4.41-2.86v-1.15h24.77l.05,11.18h-1.1c-.44-8.39-6.74-11.49-13.88-9.54-1.58,1.03-.42,12.72-.76,14.46,5.08,.16,7.89-1.1,8.22-6.42h1.15v14.49h-1.15c.02-5.18-3.27-7.62-8.22-6.92,.27,2.22-.62,14.49,.58,16.09,7.55,2.37,13.82-1.66,14.46-10.22h1.16l-.63,12.03h-24.64Zm38.5-12.54h9.57l-4.73-17.45-4.84,17.45Zm-8.53,12.54v-1.15c7.04,1.14,10.89-29.7,13.33-34h3.1l8.18,29.07c1.05,3.39,1.41,4.53,4.62,4.92v1.15h-12.13v-1.15c5.99,.39,1.92-6.62,1.49-9.63h-10.57c-.63,3.13-4.13,10.01,1.91,9.63v1.15h-9.92Zm39.97-30.74c.57-4.91-3.91-3.57-5.64-.11-1.19,2.06-2.05,4.94-2.59,8.63h-1.1l.56-12.94h22.2l.56,12.94h-1.12c-.95-5.13-1.94-10.99-6.66-11.73-1.75,.16-1.41,1.19-1.55,3.21,0,0,0,26.67,0,26.67-.33,3.3,2.32,2.93,4.76,2.92v1.15h-14.19v-1.15c2.45,0,5.09,.39,4.76-2.92,0,0,0-26.67,0-26.67h0Zm32.94-4.41v1.1c-2.44-.02-4.7-.27-4.41,2.91,0,0,0,25.97,0,25.97,.13,3.64,.09,3.86,3.65,3.97,6.98-.17,9.49-5.68,10.59-12.64h1.1l-.34,13.84h-24.08v-1.15c2.45,.03,4.68,.22,4.41-2.92,0,0,0-27.07,0-27.07,.27-3.12-1.97-2.96-4.41-2.91v-1.1h13.49Zm16.44,35.15v-1.2c2.42,.02,4.69,.26,4.41-2.86,0,0,0-27.08,0-27.08,.3-3.13-2.07-2.91-4.41-2.86v-1.15h24.77l.05,11.18h-1.1c-.44-8.39-6.74-11.49-13.88-9.54-1.58,1.03-.42,12.72-.76,14.46,5.08,.16,7.89-1.1,8.22-6.42h1.15v14.49h-1.15c.02-5.18-3.27-7.62-8.22-6.92,.27,2.22-.62,14.49,.58,16.09,7.55,2.37,13.82-1.66,14.46-10.22h1.16l-.63,12.03h-24.64Z"/><path class="l" d="M797.03,248.61c-10.5-10.44-26.46,5.52-16.02,16.02,10.5,10.44,26.46-5.52,16.02-16.02h0Z"/><path class="k" d="M796.66,254.55h187.67c2.63-.03,2.73,4.18,0,4.15,0,0-187.67,0-187.67,0-2.63,.04-2.73-4.19,0-4.15Z"/><path class="l" d="M189.45,248.61c10.5-10.44,26.46,5.53,16.02,16.02-10.5,10.44-26.46-5.52-16.02-16.02h0Z"/><path class="k" d="M189.81,254.55H2.14c-2.63-.03-2.73,4.18,0,4.15,0,0,187.67,0,187.67,0,2.63,.03,2.73-4.19,0-4.15Z"/><path class="l" d="M1024.55,31.09h3.25v-8.97h3.5l5.92,8.97h3.25l-6.11-9.22c8.3-.45,7.5-13.19-1.53-12.18,0,0-8.28,0-8.28,0V31.09h0Zm3.25-11.93v-6.51c2.9,.33,9.14-1.33,9.07,3.15,.04,4.6-6.04,3.08-9.07,3.36Zm-14.24,1.13c.04,23.93,36.54,23.92,36.58,0-.05-23.92-36.54-23.92-36.58,0Zm18.29,15.33c-19.68-.13-19.7-30.56,0-30.66,19.69,.09,19.69,30.57,0,30.66Z"/></g></g></g></svg>