<?xml version="1.0" encoding="UTF-8"?>
<!DOCTYPE svg PUBLIC "-//W3C//DTD SVG 1.1//EN" "http://www.w3.org/Graphics/SVG/1.1/DTD/svg11.dtd">
<!-- Creator: CorelDRAW 2021 (64-Bit) -->
<svg xmlns="http://www.w3.org/2000/svg" xml:space="preserve" width="420mm" height="297mm" version="1.1" style="shape-rendering:geometricPrecision; text-rendering:geometricPrecision; image-rendering:optimizeQuality; fill-rule:evenodd; clip-rule:evenodd"
viewBox="0 0 42000 29700"
 xmlns:xlink="http://www.w3.org/1999/xlink"
 xmlns:xodm="http://www.corel.com/coreldraw/odm/2003">
 <defs>
  <style type="text/css">
   <![CDATA[
    .fil0 {fill:black}
   ]]>
  </style>
 </defs>
 <g id="Capa_x0020_1">
  <metadata id="CorelCorpID_0Corel-Layer"/>
  <path class="fil0" d="M22968.53 16641.16l759.03 -3202.96 1491.91 0 0 305.75 -256.57 0c-64.31,0 -206.97,5.21 -256.07,55.33 -49.76,50.81 -55.42,192.79 -55.42,258.43l0 3651.72c0,65.64 5.66,207.59 55.42,258.42 49.1,50.13 191.79,55.34 256.07,55.34l256.57 0 0 312.5 -1908.46 0 0 -312.5 270.13 0c64.25,0 207.01,-5.21 256.07,-55.31 49.73,-50.83 55.38,-192.84 55.38,-258.45l0 -3354.92 -960.84 3981.18 -281.16 0 -974.64 -3965.66 0 2906.58c0,151.87 6.47,490.63 93.85,621.37 70.03,104.75 210.65,125.21 326.97,125.21l167.48 0 0 312.5 -1536.48 0 0 -312.5 131.46 0c132.49,0 272.87,-28.55 350.36,-146.17 96.36,-146.25 106.51,-458.3 106.51,-627.41l0 -3231.35c0,-53.53 -4.34,-188.76 -42.88,-231.46 -35.03,-38.82 -181.93,-42.85 -229.15,-42.85l-316.3 0 0 -305.75 1470.3 0 770.46 3202.96zm12434.03 -3317.89c555.54,0 977.51,274.54 1291.63,723.19 375.42,536.19 497.76,1190.94 497.76,1834.83 0,645.47 -124.17,1298.49 -499.93,1835.93 -313.5,448.34 -733.79,726.65 -1289.46,726.65 -554.76,0 -975.76,-274.6 -1288.37,-723.4 -374.22,-537.31 -494.25,-1195.28 -494.25,-1839.18 0,-642.27 120.06,-1300.5 494.33,-1835.88 313.05,-447.78 734.02,-722.14 1288.29,-722.14zm-3958.78 3317.89l759.06 -3202.96 1491.87 0 0 305.75 -256.56 0c-64.31,0 -206.97,5.21 -256.08,55.33 -49.76,50.81 -55.41,192.79 -55.41,258.43l0 3651.72c0,65.64 5.65,207.59 55.41,258.42 49.08,50.13 191.8,55.34 256.08,55.34l256.56 0 0 312.5 -1908.45 0 0 -312.5 270.15 0c64.25,0 207.02,-5.21 256.05,-55.31 49.73,-50.83 55.38,-192.84 55.38,-258.45l0 -3354.92 -960.87 3981.18 -281.11 0 -974.63 -3965.66 0 2906.58c0,151.84 6.46,490.69 93.81,621.37 70.07,104.77 210.61,125.21 326.97,125.21l167.54 0 0 312.5 -1536.53 0 0 -312.5 131.49 0c132.48,0 272.84,-28.55 350.33,-146.17 96.36,-146.25 106.51,-458.3 106.51,-627.41l0 -3231.35c0,-53.53 -4.35,-188.76 -42.88,-231.46 -35.03,-38.82 -181.93,-42.85 -229.15,-42.85l-316.3 0 0 -305.75 1470.29 0 770.47 3202.96zm-4717.24 -1032.19l40.97 0c211.99,0 512.54,-24.88 679.4,-172.95 163.9,-145.46 215.1,-413.04 231.92,-620.53l5.84 -72.13 306.48 0 0 2111.31 -310.38 0 -2.17 -76.26c-6.46,-228.13 -51.67,-487.97 -215.92,-659.05 -159.35,-165.97 -391.17,-211.44 -612.86,-211.44 -40.37,0 -82.15,2.59 -123.28,5.76l0 1646.99c0,72.36 4.03,342.35 56.49,398.26 49.97,53.22 309.28,57.51 376.7,57.51 342.38,0 741.66,-57.48 999.49,-304.97 271.4,-260.52 384.91,-730.91 438.83,-1088.99l10.08 -66.79 306.85 0 -92.69 1780 -3476.72 0 0 -319.25 280.24 0c62.79,0 213.77,-5.13 261.72,-54.16 48.04,-49.13 53.14,-189.49 53.14,-252.85l0 -3651.72c0,-65.12 -5.42,-201.94 -52.67,-253.59 -43.87,-47.98 -166.96,-53.39 -226.11,-53.39l-316.32 0 0 -312.53 3497.28 0 7.43 1665.01 -295.84 0 -9.47 -67.6c-45.76,-326.92 -144.99,-764.34 -388.84,-1005.5 -232.24,-229.7 -608.39,-279.38 -919.75,-279.38 -90.67,0 -365.74,2.87 -443.26,52.84 -61.14,39.4 -66.58,218.14 -66.58,280.04l0 1525.36zm-8318.43 -1497.16c0,-64.7 -2.28,-259.47 -34.69,-316.01 -19.02,-33.17 -60.46,-38.3 -95.34,-38.3 -224.67,0 -382.61,201.42 -484.15,378.64 -189.8,331.29 -284.79,762.36 -339.81,1136.65l-9.86 67.08 -297.41 0 82.3 -1901.67 3143.84 0 82.33 1901.67 -301.09 0 -9.61 -67.42c-53.34,-374.08 -146.82,-805.31 -336.41,-1136.31 -101.56,-177.3 -259.47,-378.64 -484.2,-378.64 -34.85,0 -76.29,5.16 -95.28,38.3 -32.34,56.41 -34.69,251.42 -34.69,316.01l0 4576.15c0,65.24 5.86,209.03 55.33,259.52 48.74,49.79 193.36,55.36 257.25,55.36l329.82 0 0 312.48 -2070.73 0 0 -312.48 326.42 0c64.2,0 211.65,-5.26 260.65,-55.33 49.81,-50.91 55.33,-193.83 55.33,-259.55l0 -4576.15zm-2376.23 2769.96l-1305.81 0 -165.71 609.28c-12.82,47.12 -20.72,95 -27.29,143.32 -5.36,39.48 -9.44,80.24 -9.44,120.13 0,74.9 16.64,148.55 79.64,194.96 80,58.92 226.22,71.21 321.87,73.75l76.39 2.04 0 310.44 -1494.84 0 0 -312.5 92.04 0c155.4,0 281.84,-58.01 385.68,-173.51 139.57,-155.3 226.56,-397.11 281.42,-595.13l1057.36 -3816.35 537.28 0 1119.52 3978.35c36.6,130.05 114.38,387.16 214.34,483.13 86.94,83.45 224.55,113.3 340.5,123.82l71.39 6.49 0 305.7 -1793.47 0 0 -310.2 76.16 -2.28c88.95,-2.64 218.92,-14.28 296.07,-63.31 52.88,-33.62 72.89,-80.34 72.89,-142.24 0,-40 -4,-80.14 -10.26,-119.61 -9,-56.88 -24.77,-115.35 -39.92,-170.87l-175.81 -645.41zm-4805.47 -1272.8l40.96 0c211.97,0 512.51,-24.82 679.35,-172.93 163.88,-145.48 215.1,-413.09 231.97,-620.55l5.87 -72.13 306.43 0 0 2111.31 -310.36 0 -2.17 -76.26c-6.46,-228.13 -51.72,-488 -215.99,-659.05 -159.35,-165.94 -391.12,-211.44 -612.82,-211.44 -40.86,0 -82.28,2.12 -123.24,5.32l0 1647.43c0,72.34 4,342.38 56.48,398.24 49.99,53.24 309.28,57.53 376.73,57.53 342.35,0 741.66,-57.51 999.43,-304.97 271.38,-260.52 384.92,-730.91 438.84,-1088.99l10.07 -66.79 306.88 0 -92.72 1780 -3476.72 0 0 -319.25 280.25 0c62.79,0 213.77,-5.13 261.72,-54.16 48.03,-49.13 53.13,-189.49 53.13,-252.85l0 -3651.72c0,-65.17 -5.44,-201.89 -52.71,-253.59 -43.85,-47.95 -166.94,-53.39 -226.07,-53.39l-316.32 0 0 -312.53 3497.29 0 7.48 1665.01 -295.89 0 -9.47 -67.6c-45.76,-326.89 -144.99,-764.37 -388.82,-1005.5 -232.29,-229.7 -608.39,-279.38 -919.77,-279.38 -90.6,0 -365.79,2.9 -443.23,52.82 -61.14,39.42 -66.58,218.16 -66.58,280.06l0 1525.36zm-2825.24 -325.4c305.28,96.49 594.97,244.35 824.85,470.08 276.66,271.69 412.89,605.59 412.89,993.02 0,262.41 -70.59,508.59 -203.57,734.84 -136.69,232.6 -320.93,419.03 -551.93,558.94 -177.62,107.58 -378.3,172.98 -581.4,211.97 -280.24,53.78 -588.51,63.86 -873.31,63.86l-1989.65 0 0 -332.42 316.42 0c83.49,0 251.26,-7.27 314.68,-72.07 63.78,-65.12 70.66,-235.56 70.66,-319.91l0 -4306.02c0,-81.26 -7.09,-244.22 -65.85,-308.5 -55.43,-60.65 -201.91,-67.53 -276.97,-67.53l-358.94 0 0 -340.36 2300.59 0c448.39,0 954.96,68.18 1324.18,343.84 334.5,249.74 471.38,606.93 471.38,1018.46 0,365.92 -149.85,673.51 -408.72,929 -207.86,205.14 -454.8,340.71 -725.31,422.8zm27916.97 597.72c0,-518.42 -27.39,-1247.84 -232.66,-1730.92 -128.76,-303.05 -332.72,-514.6 -676.15,-514.6 -343.45,0 -547.35,211.55 -676.15,514.6 -205.29,483.08 -232.68,1212.5 -232.68,1730.92 0,519.5 27.55,1249.02 232.71,1733.27 128.48,303.22 332.2,516.8 676.12,516.8 342.67,0 545.48,-215.86 673.96,-516.98 206.68,-484.46 234.85,-1212.94 234.85,-1733.09zm-21478.97 606.8l1084.69 0 -536.24 -1978.04 -548.45 1978.04zm-7799.81 -1014.71l0 1989.6c0,90.86 4.24,375.42 68.86,447.21 60.2,66.85 238.83,73.67 320.48,73.67 307.43,0 717.86,-41.99 942.35,-279.74 226.36,-239.72 265.62,-669.07 265.62,-981.41 0,-324.25 -48.4,-739.07 -301.64,-972.28 -262.72,-241.94 -743.52,-280.92 -1081.79,-280.92 -58.97,0 -117.97,0.75 -176.91,2.64 -12.29,0.42 -24.62,0.78 -36.97,1.23zm0 -332.18c12.77,0.47 25.54,0.89 38.31,1.31 58.49,1.86 117.04,2.59 175.57,2.59 307.5,0 782.52,-30.82 1023.76,-249.48 233.55,-211.68 271.95,-623.04 271.95,-917.36 0,-252.05 -24.9,-649.89 -206.41,-846.5 -178.98,-193.85 -548.88,-221.93 -794.25,-221.93 -88.32,0 -368.65,4.27 -439.33,64.86 -63.66,54.55 -69.6,229.15 -69.6,304.52l0 1861.99z"/>
 </g>
</svg>
